<?xml version="1.0" encoding="UTF-8"?>
<svg id="_Слой_2" data-name="Слой 2" xmlns="http://www.w3.org/2000/svg" viewBox="0 0 1108.01 1076.25">
  <defs>
    <style>
      .cls-1 {
        fill: #ffe0a5;
        stroke-width: 0px;
      }
    </style>
  </defs>
  <g id="_Слой_1-2" data-name="Слой 1">
    <path class="cls-1" d="m1107.66,575.95c4.18-66.15-29.31-128.37-83.7-164.95-7.99-5.37-10.88-15.73-6.66-24.38l.21-.42c27.82-57.05,24.43-123.09-9.05-176.66-33.7-54.78-93.49-86.73-155.6-86.38-6.73.04-13.05-3.6-16.29-9.5-51.75-94.25-183.22-128.05-272.96-56.55-3.68-3.55-6.01-5.8-6.01-5.8C458-46.62,292.12,4.36,255.35,130.52c-2.19,7.5-8.79,12.88-16.58,13.51-56.56,4.56-109.45,35.71-140.32,86.09-28.31,45.51-34.89,99.88-19.22,150.1,2.37,7.6-.35,15.86-6.71,20.65C27.3,434.87.37,487.68,0,545.27c-.34,54.37,24.47,104.67,64.51,139.47,5.86,5.09,8.12,13.25,5.49,20.55-18.17,50.46-13.37,105.92,14.42,153.32,9.32,15.9,20.65,29.97,33.53,42.01,7.89,7.38,20.41,7.04,27.52-1.1,25.79-29.52,58.78-40.74,91.84-156.45,69.14-241.99,69.76-237.77,69.76-237.77,0,0,28.17-93.9,78.88-167.15,50.71-73.24,129.58-135.22,184.05-155.88,47.35-17.95,77.66-24.56,84.77-25.99,1.62-.32,3.29-.24,4.81.41,2.52,1.09,5.45,3.79,4.32,10.55-1.16,6.93-5.15,25.24-8.06,38.29-1.43,6.44,4.54,12.04,10.89,10.22l81.69-25.99s8.7-1.52,11.27,7.51c3.76,13.15-15.02,97.66-15.02,97.66,0,0-3.76,13.15,5.63,18.78,9.39,5.63,52.58,33.8,73.24,77,19.38,40.51,23.89,84.32,24.38,89.62l.17,1.11c.73,3.25,4.81,19.17,14.89,27.59,9.11,7.59,19.46,17.63,23.08,21.2,1.11,1.09,1.88,2.42,2.27,3.93.79,2.99,1.45,8.45-.94,15.85-3.76,11.61-18.78,45.41-41.32,67.95-22.54,22.54-45.07,39.44-116.44,65.73-35.46,13.07-49.13,26.6-53.22,39.9-5.32,17.32,2.21,34.04,4.39,38.98,13.05,29.6,26.13,96.65,31.83,282.99,0,8.87,2.95,15.94,6.54,21.81,5.21,8.49,16.38,11.34,25.14,6.6,47.92-25.98,83.22-72.65,93.02-129.51h0c1.69-9.79,10.6-16.61,20.51-15.85,4.09.31,7.43.45,9.74.37,65.05,0,123.74-34.02,156.99-91.01,22.53-38.61,29.84-82.5,21.97-124.66-1.17-6.27.89-12.84,5.5-17.25,32.53-31.13,52.66-73.56,55.6-120.09Z"/>
  </g>
</svg>