<?xml version="1.0" encoding="UTF-8"?>
<svg id="_Слой_2" data-name="Слой 2" xmlns="http://www.w3.org/2000/svg" viewBox="0 0 1706.53 1076.25">
  <defs>
    <style>
      .cls-1, .cls-2 {
        stroke-width: 0px;
      }

      .cls-2 {
        fill: #ffe0a5;
      }
    </style>
  </defs>
  <g id="_Слой_1-2" data-name="Слой 1">
    <g>
      <path class="cls-2" d="m1107.66,575.95c4.18-66.15-29.31-128.37-83.7-164.95-7.99-5.37-10.88-15.73-6.66-24.38l.21-.42c27.82-57.05,24.43-123.09-9.05-176.66-33.7-54.78-93.49-86.73-155.6-86.38-6.73.04-13.05-3.6-16.29-9.5-51.75-94.25-183.22-128.05-272.96-56.55-3.68-3.55-6.01-5.8-6.01-5.8C458-46.62,292.12,4.36,255.35,130.52c-2.19,7.5-8.79,12.88-16.58,13.51-56.56,4.56-109.45,35.71-140.32,86.09-28.31,45.51-34.89,99.88-19.22,150.1,2.37,7.6-.35,15.86-6.71,20.65C27.3,434.87.37,487.68,0,545.27c-.34,54.37,24.47,104.67,64.51,139.47,5.86,5.09,8.12,13.25,5.49,20.55-18.17,50.46-13.37,105.92,14.42,153.32,9.32,15.9,20.65,29.97,33.53,42.01,7.89,7.38,20.41,7.04,27.52-1.1,25.79-29.52,58.78-40.74,91.84-156.45,69.14-241.99,69.76-237.77,69.76-237.77,0,0,28.17-93.9,78.88-167.15,50.71-73.24,129.58-135.22,184.05-155.88,47.35-17.95,77.66-24.56,84.77-25.99,1.62-.32,3.29-.24,4.81.41,2.52,1.09,5.45,3.79,4.32,10.55-1.16,6.93-5.15,25.24-8.06,38.29-1.43,6.44,4.54,12.04,10.89,10.22l81.69-25.99s8.7-1.52,11.27,7.51c3.76,13.15-15.02,97.66-15.02,97.66,0,0-3.76,13.15,5.63,18.78,9.39,5.63,52.58,33.8,73.24,77,19.38,40.51,23.89,84.32,24.38,89.62l.17,1.11c.73,3.25,4.81,19.17,14.89,27.59,9.11,7.59,19.46,17.63,23.08,21.2,1.11,1.09,1.88,2.42,2.27,3.93.79,2.99,1.45,8.45-.94,15.85-3.76,11.61-18.78,45.41-41.32,67.95-22.54,22.54-45.07,39.44-116.44,65.73-35.46,13.07-49.13,26.6-53.22,39.9-5.32,17.32,2.21,34.04,4.39,38.98,13.05,29.6,26.13,96.65,31.83,282.99,0,8.87,2.95,15.94,6.54,21.81,5.21,8.49,16.38,11.34,25.14,6.6,47.92-25.98,83.22-72.65,93.02-129.51h0c1.69-9.79,10.6-16.61,20.51-15.85,4.09.31,7.43.45,9.74.37,65.05,0,123.74-34.02,156.99-91.01,22.53-38.61,29.84-82.5,21.97-124.66-1.17-6.27.89-12.84,5.5-17.25,32.53-31.13,52.66-73.56,55.6-120.09Z"/>
      <g>
        <polygon class="cls-1" points="1267.33 589.39 1267.33 587.51 1236.78 587.51 1170.42 735.03 1170.42 587.51 1142.3 587.51 1142.3 915.92 1170.42 915.92 1170.42 758.11 1243.45 915.92 1274.41 915.92 1195.71 745.73 1267.33 589.39"/>
        <path class="cls-1" d="m589.82,537.84h-74.11V233.17h-27.77v307.21c0,6.9,2.06,12.54,6.19,16.9,4.13,4.37,9.45,6.55,15.98,6.55h85.09c6.52,0,11.89-2.18,16.08-6.55,4.19-4.37,6.29-10,6.29-16.9V233.17h-27.77v304.67Z"/>
        <path class="cls-1" d="m728.96,404.51c3.76.21,6.62.31,8.56.31,19.72,0,29.59-7.9,29.59-23.71v-124.65c0-6.85-2.01-12.45-6.03-16.79-4.03-4.34-9.21-6.51-15.57-6.51h-102v328.41h27.06v-302.6h69.49v120.87h-48.27l-3.7,5.88,56.64,175.85h28.42c-17.39-52.6-34.84-105.06-52.36-157.39,1.69,0,4.41.1,8.18.31Z"/>
        <path class="cls-1" d="m900.8,233.61h-88.05c-6.57,0-11.93,2.18-16.08,6.54-4.16,4.36-6.23,9.99-6.23,16.88v283.37c0,6.9,2.07,12.52,6.23,16.88,4.15,4.36,9.51,6.54,16.08,6.54h88.05c6.57,0,11.96-2.18,16.18-6.54,4.22-4.36,6.33-9.98,6.33-16.88v-283.37c0-6.89-2.11-12.52-6.33-16.88-4.22-4.36-9.62-6.54-16.18-6.54Zm-5.43,304.26h-77v-278.31h77v278.31Z"/>
        <path class="cls-1" d="m1600.46,915.92h82.92c6.87,0,12.45-2.17,16.73-6.51,4.28-4.34,6.42-9.93,6.42-16.79v-75.97c0-9.09-3.02-17.27-9.05-24.55l-91.33-109.54v-69.25h71.13v73.87h29.25v-76.38c0-6.85-2.14-12.45-6.42-16.79-4.28-4.34-9.86-6.51-16.73-6.51h-82.92c-6.88,0-12.52,2.17-16.94,6.51-4.42,4.34-6.63,9.93-6.63,16.79v66.52c0,9.09,3.16,17.42,9.47,24.97l90.91,109.54v78.27h-71.13v-80.79h-29.25v83.31c0,6.86,2.21,12.45,6.63,16.79,4.42,4.34,10.06,6.51,16.94,6.51Z"/>
        <path class="cls-1" d="m667.08,915.92h82.92c6.87,0,12.45-2.17,16.73-6.51,4.28-4.34,6.42-9.93,6.42-16.79v-75.97c0-9.09-3.02-17.27-9.05-24.55l-91.33-109.54v-69.25h71.13v73.87h29.25v-76.38c0-6.85-2.14-12.45-6.42-16.79-4.28-4.34-9.86-6.51-16.73-6.51h-82.92c-6.88,0-12.52,2.17-16.94,6.51-4.42,4.34-6.63,9.93-6.63,16.79v66.52c0,9.09,3.16,17.42,9.47,24.97l90.91,109.54v78.27h-71.13v-80.79h-29.25v83.31c0,6.86,2.21,12.45,6.63,16.79,4.42,4.34,10.06,6.51,16.94,6.51Z"/>
        <polygon class="cls-1" points="790.43 613.32 841.04 613.32 841.04 915.92 869.87 915.92 869.87 613.32 920.07 613.32 920.07 587.51 790.43 587.51 790.43 613.32"/>
        <rect class="cls-1" x="940.82" y="233.17" width="29.33" height="682.75"/>
        <path class="cls-1" d="m1099.1,589.3h-85.03c-6.9,0-12.52,2.16-16.88,6.47-4.36,4.32-6.54,9.88-6.54,16.7v280.29c0,6.82,2.18,12.38,6.54,16.7,4.36,4.32,9.98,6.47,16.88,6.47h85.03c6.89,0,12.59-2.15,17.09-6.47,4.5-4.31,6.75-9.88,6.75-16.7v-82.85h-29.54v80.35h-73.43v-275.28h73.43v73.46h29.54v-75.97c0-6.82-2.25-12.38-6.75-16.7-4.5-4.31-10.2-6.47-17.09-6.47Z"/>
        <polygon class="cls-1" points="463.71 235.05 463.71 233.17 433.74 233.17 368.62 380.69 368.62 233.17 341.02 233.17 341.02 561.58 368.62 561.58 368.62 403.77 440.29 561.58 470.66 561.58 393.43 391.39 463.71 235.05"/>
        <polygon class="cls-1" points="1324.51 762.1 1411.26 762.1 1411.26 735.87 1324.51 735.87 1324.51 613.32 1419.78 613.32 1419.78 587.51 1288.63 587.51 1288.63 915.92 1421.33 915.92 1421.33 890.11 1324.51 890.11 1324.51 762.1"/>
        <path class="cls-1" d="m1522.57,758.85c3.89.21,6.84.31,8.85.31,20.39,0,30.59-7.9,30.59-23.71v-124.65c0-6.85-2.08-12.45-6.24-16.79-4.16-4.34-9.53-6.51-16.1-6.51h-105.45v328.41h27.97v-302.6h71.84v120.87h-49.91l-3.82,5.88,58.56,175.85h29.38c-17.98-52.6-36.02-105.06-54.14-157.39,1.74,0,4.56.1,8.45.31Z"/>
      </g>
    </g>
  </g>
</svg>