<?xml version="1.0" encoding="UTF-8"?>
<svg id="_Слой_2" data-name="Слой 2" xmlns="http://www.w3.org/2000/svg" viewBox="-100 -200 928 928">
  <defs>
    <style>
      .cls-1, .cls-2 {
        stroke-width: 10px;
      728
      }

      .cls-2 {
        fill: #6cabd9;
      }
    </style>
  </defs>

  <rect x="-100" y="-200" width="928" height="928" fill="#ffe0a5" />

  <g id="_Слой_1-2" data-name="Слой 1">
    <g>
      <path class="cls-2" d="m.31,727.45c23.16-22.12,49.42-47.22,76.05-140.45,60.38-211.34,68.49-234.85,69.57-237.42l.03.19.16-.54c.28-.94,28.75-94.72,78.86-167.11,53.03-76.6,132.7-136.38,183.99-155.83C455.66,8.58,485.65,1.92,493.72.31c.61-.12,1.21-.18,1.79-.18,1.05,0,2.04.2,2.94.59,2.55,1.1,5.35,3.8,4.25,10.42-1.37,8.15-6.51,31.37-8.06,38.29-.58,2.62.04,5.32,1.71,7.4,1.69,2.11,4.19,3.32,6.86,3.32.83,0,1.66-.12,2.48-.35l81.7-25.99s.55-.09,1.38-.09c2.83,0,7.87.98,9.73,7.52,3.71,12.97-14.84,96.75-15.03,97.6-.04.13-3.67,13.3,5.69,18.91,5.22,3.14,51.66,31.93,73.2,76.95,19.39,40.53,23.91,84.68,24.37,89.58l.17,1.12c.71,3.13,4.74,19.16,14.94,27.67,9.31,7.76,20.02,18.19,23.07,21.2,1.09,1.08,1.85,2.38,2.24,3.87.85,3.23,1.38,8.58-.94,15.78-3.3,10.21-17.98,44.59-41.29,67.9-24.48,24.48-48.14,40.56-116.39,65.7-31.55,11.62-48.49,24.33-53.29,39.98-5.27,17.17,1.94,33.52,4.31,38.89l.08.18c9.89,22.42,17.36,61.98,22.83,120.93H.31Z"/>
      <path class="cls-1" d="m495.52.25c1.04,0,2.01.19,2.89.58,2.5,1.08,5.26,3.75,4.17,10.28-1.37,8.15-6.51,31.36-8.05,38.28-.59,2.66.04,5.4,1.73,7.51,1.72,2.14,4.25,3.36,6.96,3.36.84,0,1.69-.12,2.52-.36l81.66-25.98s.54-.09,1.38-.09c2.8,0,7.77.97,9.61,7.43,3.7,12.94-14.84,96.69-15.02,97.52-.04.13-3.7,13.4,5.75,19.06,5.22,3.13,51.63,31.91,73.15,76.89,19.38,40.51,23.9,84.64,24.36,89.55l.17,1.13c.71,3.13,4.75,19.19,14.98,27.73,9.31,7.75,20.01,18.18,23.07,21.19,1.08,1.06,1.82,2.34,2.21,3.81.85,3.21,1.38,8.54-.93,15.71-3.3,10.2-17.97,44.56-41.26,67.85-11.43,11.43-22.58,21.14-39.86,31.42-18.32,10.89-42.63,21.78-76.49,34.25-31.59,11.64-48.55,24.37-53.37,40.06-5.28,17.21,1.95,33.6,4.32,38.98l.08.17c9.88,22.4,17.34,61.9,22.81,120.76H.62c23.12-22.08,49.3-47.33,75.86-140.29,58.03-203.12,67.77-232.7,69.39-236.98l.04.28.32-1.07c.28-.94,28.74-94.7,78.84-167.07,53.02-76.58,132.66-136.34,183.93-155.79C455.7,8.7,485.68,2.05,493.75.43c.6-.12,1.19-.18,1.77-.18M495.52,0c-.61,0-1.21.06-1.81.18-7.12,1.43-37.43,8.04-84.77,25.99-54.46,20.66-133.34,82.63-184.05,155.88-50.71,73.24-78.88,167.15-78.88,167.15,0,0,0,0,0,0-.11,0-2.94,3.93-69.75,237.78-26.71,93.5-53.38,118.78-76.25,140.61h542.6c-6.39-68.9-14.63-102.45-22.86-121.11-2.18-4.94-9.7-21.66-4.39-38.98,4.08-13.3,17.75-26.83,53.22-39.9,71.37-26.29,93.9-43.19,116.44-65.73,22.54-22.54,37.56-56.34,41.32-67.95,2.39-7.4,1.73-12.86.94-15.85-.39-1.5-1.16-2.84-2.27-3.93-3.62-3.57-13.97-13.62-23.08-21.2-10.09-8.41-14.16-24.34-14.89-27.59l-.17-1.11c-.49-5.3-5-49.11-24.38-89.62-20.66-43.19-63.85-71.37-73.24-77-9.39-5.63-5.63-18.78-5.63-18.78,0,0,18.78-84.51,15.02-97.66-1.92-6.76-7.27-7.61-9.85-7.61-.87,0-1.42.1-1.42.1l-81.69,25.99c-.83.24-1.65.35-2.45.35-5.33,0-9.69-4.96-8.45-10.57,2.91-13.05,6.89-31.36,8.06-38.29,1.13-6.76-1.8-9.47-4.32-10.55C497.55.18,496.54,0,495.52,0h0Z"/>
    </g>
  </g>
</svg>